<svg width="36" height="36" viewBox="0 0 36 36" fill="none" xmlns="http://www.w3.org/2000/svg">
<path d="M19.08 31.58L34.4 19.57C34.639 19.3829 34.8324 19.1439 34.9653 18.871C35.0983 18.5981 35.1674 18.2985 35.1674 17.995C35.1674 17.6914 35.0983 17.3919 34.9653 17.119C34.8324 16.8461 34.639 16.6071 34.4 16.42L19.08 4.42C18.7911 4.18732 18.4413 4.04282 18.0724 4.0038C17.7035 3.96479 17.3312 4.0329 17 4.2C16.6771 4.37122 16.4108 4.63239 16.2333 4.95186C16.0559 5.27133 15.9748 5.6354 16 6V12.7L5.34 4.42C5.05306 4.1913 4.70687 4.04913 4.34202 4.01017C3.97717 3.9712 3.60876 4.03705 3.28 4.2C2.94526 4.36633 2.66384 4.62314 2.46764 4.94129C2.27144 5.25945 2.16833 5.62622 2.17 6V30C2.1702 30.3721 2.27419 30.7367 2.47028 31.053C2.66637 31.3692 2.94679 31.6244 3.28 31.79C3.60906 31.9518 3.97723 32.0169 4.34183 31.978C4.70642 31.9391 5.05252 31.7976 5.34 31.57L16 23.31V30C15.9768 30.3629 16.0588 30.7249 16.2362 31.0424C16.4135 31.3599 16.6788 31.6195 17 31.79C17.3291 31.9518 17.6972 32.0169 18.0618 31.978C18.4264 31.9391 18.7725 31.7976 19.06 31.57L19.08 31.58Z" fill="black"/>
</svg>
