<svg width="36" height="36" viewBox="0 0 36 36" fill="none" xmlns="http://www.w3.org/2000/svg">
<path d="M32.16 16.08L8.94 4.47C8.62675 4.32487 8.28218 4.26039 7.93764 4.28243C7.59311 4.30447 7.25956 4.41234 6.96736 4.59621C6.67516 4.78007 6.43359 5.03411 6.26463 5.33518C6.09568 5.63625 6.00471 5.97479 6 6.32V29.53C5.99708 29.8844 6.08561 30.2335 6.25705 30.5436C6.42849 30.8537 6.67703 31.1144 6.97866 31.3004C7.28029 31.4864 7.6248 31.5915 7.97889 31.6054C8.33298 31.6194 8.68468 31.5417 9 31.38L32.16 19.77C32.5031 19.5978 32.7915 19.3336 32.9931 19.0069C33.1946 18.6802 33.3013 18.3039 33.3013 17.92C33.3013 17.5361 33.1946 17.1598 32.9931 16.8331C32.7915 16.5064 32.5031 16.2422 32.16 16.07V16.08Z" fill="black"/>
</svg>
