<svg width="36" height="36" viewBox="0 0 36 36" fill="none" xmlns="http://www.w3.org/2000/svg">
<path d="M16.92 31.58L1.6 19.57C1.36095 19.3829 1.16763 19.1439 1.03467 18.871C0.901721 18.5981 0.832626 18.2985 0.832626 17.995C0.832626 17.6914 0.901721 17.3919 1.03467 17.119C1.16763 16.8461 1.36095 16.6071 1.6 16.42L16.92 4.42C17.2089 4.18732 17.5587 4.04282 17.9276 4.0038C18.2965 3.96479 18.6688 4.0329 19 4.2C19.3229 4.37122 19.5892 4.63239 19.7666 4.95186C19.9441 5.27133 20.0252 5.6354 20 6V12.7L30.66 4.42C30.9469 4.1913 31.2931 4.04913 31.658 4.01017C32.0228 3.9712 32.3912 4.03705 32.72 4.2C33.0547 4.36633 33.3362 4.62314 33.5324 4.94129C33.7286 5.25945 33.8317 5.62622 33.83 6V30C33.8298 30.3721 33.7258 30.7367 33.5297 31.053C33.3336 31.3692 33.0532 31.6244 32.72 31.79C32.3909 31.9518 32.0228 32.0169 31.6582 31.978C31.2936 31.9391 30.9475 31.7976 30.66 31.57L20 23.31V30C20.0232 30.3629 19.9412 30.7249 19.7638 31.0424C19.5865 31.3599 19.3212 31.6195 19 31.79C18.6709 31.9518 18.3028 32.0169 17.9382 31.978C17.5736 31.9391 17.2275 31.7976 16.94 31.57L16.92 31.58Z" fill="black"/>
</svg>
